%TF.GenerationSoftware,KiCad,Pcbnew,10.0.1*%
%TF.CreationDate,2026-05-03T22:47:29-04:00*%
%TF.ProjectId,rc-car-remote,72632d63-6172-42d7-9265-6d6f74652e6b,rev?*%
%TF.SameCoordinates,Original*%
%TF.FileFunction,Legend,Bot*%
%TF.FilePolarity,Positive*%
%FSLAX46Y46*%
G04 Gerber Fmt 4.6, Leading zero omitted, Abs format (unit mm)*
G04 Created by KiCad (PCBNEW 10.0.1) date 2026-05-03 22:47:29*
%MOMM*%
%LPD*%
G01*
G04 APERTURE LIST*
%ADD10C,0.150000*%
%ADD11C,0.100000*%
%ADD12C,0.120000*%
%ADD13C,0.127000*%
%ADD14C,0.200000*%
G04 APERTURE END LIST*
D10*
X149666666Y-117524819D02*
X149999999Y-117048628D01*
X150238094Y-117524819D02*
X150238094Y-116524819D01*
X150238094Y-116524819D02*
X149857142Y-116524819D01*
X149857142Y-116524819D02*
X149761904Y-116572438D01*
X149761904Y-116572438D02*
X149714285Y-116620057D01*
X149714285Y-116620057D02*
X149666666Y-116715295D01*
X149666666Y-116715295D02*
X149666666Y-116858152D01*
X149666666Y-116858152D02*
X149714285Y-116953390D01*
X149714285Y-116953390D02*
X149761904Y-117001009D01*
X149761904Y-117001009D02*
X149857142Y-117048628D01*
X149857142Y-117048628D02*
X150238094Y-117048628D01*
X148761904Y-116524819D02*
X149238094Y-116524819D01*
X149238094Y-116524819D02*
X149285713Y-117001009D01*
X149285713Y-117001009D02*
X149238094Y-116953390D01*
X149238094Y-116953390D02*
X149142856Y-116905771D01*
X149142856Y-116905771D02*
X148904761Y-116905771D01*
X148904761Y-116905771D02*
X148809523Y-116953390D01*
X148809523Y-116953390D02*
X148761904Y-117001009D01*
X148761904Y-117001009D02*
X148714285Y-117096247D01*
X148714285Y-117096247D02*
X148714285Y-117334342D01*
X148714285Y-117334342D02*
X148761904Y-117429580D01*
X148761904Y-117429580D02*
X148809523Y-117477200D01*
X148809523Y-117477200D02*
X148904761Y-117524819D01*
X148904761Y-117524819D02*
X149142856Y-117524819D01*
X149142856Y-117524819D02*
X149238094Y-117477200D01*
X149238094Y-117477200D02*
X149285713Y-117429580D01*
X151333332Y-99207200D02*
X151190475Y-99254819D01*
X151190475Y-99254819D02*
X150952380Y-99254819D01*
X150952380Y-99254819D02*
X150857142Y-99207200D01*
X150857142Y-99207200D02*
X150809523Y-99159580D01*
X150809523Y-99159580D02*
X150761904Y-99064342D01*
X150761904Y-99064342D02*
X150761904Y-98969104D01*
X150761904Y-98969104D02*
X150809523Y-98873866D01*
X150809523Y-98873866D02*
X150857142Y-98826247D01*
X150857142Y-98826247D02*
X150952380Y-98778628D01*
X150952380Y-98778628D02*
X151142856Y-98731009D01*
X151142856Y-98731009D02*
X151238094Y-98683390D01*
X151238094Y-98683390D02*
X151285713Y-98635771D01*
X151285713Y-98635771D02*
X151333332Y-98540533D01*
X151333332Y-98540533D02*
X151333332Y-98445295D01*
X151333332Y-98445295D02*
X151285713Y-98350057D01*
X151285713Y-98350057D02*
X151238094Y-98302438D01*
X151238094Y-98302438D02*
X151142856Y-98254819D01*
X151142856Y-98254819D02*
X150904761Y-98254819D01*
X150904761Y-98254819D02*
X150761904Y-98302438D01*
X150428570Y-98254819D02*
X150190475Y-99254819D01*
X150190475Y-99254819D02*
X149999999Y-98540533D01*
X149999999Y-98540533D02*
X149809523Y-99254819D01*
X149809523Y-99254819D02*
X149571428Y-98254819D01*
X148666666Y-99254819D02*
X149238094Y-99254819D01*
X148952380Y-99254819D02*
X148952380Y-98254819D01*
X148952380Y-98254819D02*
X149047618Y-98397676D01*
X149047618Y-98397676D02*
X149142856Y-98492914D01*
X149142856Y-98492914D02*
X149238094Y-98540533D01*
X150166666Y-124929580D02*
X150214285Y-124977200D01*
X150214285Y-124977200D02*
X150357142Y-125024819D01*
X150357142Y-125024819D02*
X150452380Y-125024819D01*
X150452380Y-125024819D02*
X150595237Y-124977200D01*
X150595237Y-124977200D02*
X150690475Y-124881961D01*
X150690475Y-124881961D02*
X150738094Y-124786723D01*
X150738094Y-124786723D02*
X150785713Y-124596247D01*
X150785713Y-124596247D02*
X150785713Y-124453390D01*
X150785713Y-124453390D02*
X150738094Y-124262914D01*
X150738094Y-124262914D02*
X150690475Y-124167676D01*
X150690475Y-124167676D02*
X150595237Y-124072438D01*
X150595237Y-124072438D02*
X150452380Y-124024819D01*
X150452380Y-124024819D02*
X150357142Y-124024819D01*
X150357142Y-124024819D02*
X150214285Y-124072438D01*
X150214285Y-124072438D02*
X150166666Y-124120057D01*
X149595237Y-124453390D02*
X149690475Y-124405771D01*
X149690475Y-124405771D02*
X149738094Y-124358152D01*
X149738094Y-124358152D02*
X149785713Y-124262914D01*
X149785713Y-124262914D02*
X149785713Y-124215295D01*
X149785713Y-124215295D02*
X149738094Y-124120057D01*
X149738094Y-124120057D02*
X149690475Y-124072438D01*
X149690475Y-124072438D02*
X149595237Y-124024819D01*
X149595237Y-124024819D02*
X149404761Y-124024819D01*
X149404761Y-124024819D02*
X149309523Y-124072438D01*
X149309523Y-124072438D02*
X149261904Y-124120057D01*
X149261904Y-124120057D02*
X149214285Y-124215295D01*
X149214285Y-124215295D02*
X149214285Y-124262914D01*
X149214285Y-124262914D02*
X149261904Y-124358152D01*
X149261904Y-124358152D02*
X149309523Y-124405771D01*
X149309523Y-124405771D02*
X149404761Y-124453390D01*
X149404761Y-124453390D02*
X149595237Y-124453390D01*
X149595237Y-124453390D02*
X149690475Y-124501009D01*
X149690475Y-124501009D02*
X149738094Y-124548628D01*
X149738094Y-124548628D02*
X149785713Y-124643866D01*
X149785713Y-124643866D02*
X149785713Y-124834342D01*
X149785713Y-124834342D02*
X149738094Y-124929580D01*
X149738094Y-124929580D02*
X149690475Y-124977200D01*
X149690475Y-124977200D02*
X149595237Y-125024819D01*
X149595237Y-125024819D02*
X149404761Y-125024819D01*
X149404761Y-125024819D02*
X149309523Y-124977200D01*
X149309523Y-124977200D02*
X149261904Y-124929580D01*
X149261904Y-124929580D02*
X149214285Y-124834342D01*
X149214285Y-124834342D02*
X149214285Y-124643866D01*
X149214285Y-124643866D02*
X149261904Y-124548628D01*
X149261904Y-124548628D02*
X149309523Y-124501009D01*
X149309523Y-124501009D02*
X149404761Y-124453390D01*
X160166666Y-117859580D02*
X160214285Y-117907200D01*
X160214285Y-117907200D02*
X160357142Y-117954819D01*
X160357142Y-117954819D02*
X160452380Y-117954819D01*
X160452380Y-117954819D02*
X160595237Y-117907200D01*
X160595237Y-117907200D02*
X160690475Y-117811961D01*
X160690475Y-117811961D02*
X160738094Y-117716723D01*
X160738094Y-117716723D02*
X160785713Y-117526247D01*
X160785713Y-117526247D02*
X160785713Y-117383390D01*
X160785713Y-117383390D02*
X160738094Y-117192914D01*
X160738094Y-117192914D02*
X160690475Y-117097676D01*
X160690475Y-117097676D02*
X160595237Y-117002438D01*
X160595237Y-117002438D02*
X160452380Y-116954819D01*
X160452380Y-116954819D02*
X160357142Y-116954819D01*
X160357142Y-116954819D02*
X160214285Y-117002438D01*
X160214285Y-117002438D02*
X160166666Y-117050057D01*
X159309523Y-116954819D02*
X159499999Y-116954819D01*
X159499999Y-116954819D02*
X159595237Y-117002438D01*
X159595237Y-117002438D02*
X159642856Y-117050057D01*
X159642856Y-117050057D02*
X159738094Y-117192914D01*
X159738094Y-117192914D02*
X159785713Y-117383390D01*
X159785713Y-117383390D02*
X159785713Y-117764342D01*
X159785713Y-117764342D02*
X159738094Y-117859580D01*
X159738094Y-117859580D02*
X159690475Y-117907200D01*
X159690475Y-117907200D02*
X159595237Y-117954819D01*
X159595237Y-117954819D02*
X159404761Y-117954819D01*
X159404761Y-117954819D02*
X159309523Y-117907200D01*
X159309523Y-117907200D02*
X159261904Y-117859580D01*
X159261904Y-117859580D02*
X159214285Y-117764342D01*
X159214285Y-117764342D02*
X159214285Y-117526247D01*
X159214285Y-117526247D02*
X159261904Y-117431009D01*
X159261904Y-117431009D02*
X159309523Y-117383390D01*
X159309523Y-117383390D02*
X159404761Y-117335771D01*
X159404761Y-117335771D02*
X159595237Y-117335771D01*
X159595237Y-117335771D02*
X159690475Y-117383390D01*
X159690475Y-117383390D02*
X159738094Y-117431009D01*
X159738094Y-117431009D02*
X159785713Y-117526247D01*
X169928571Y-100256819D02*
X170261904Y-99780628D01*
X170499999Y-100256819D02*
X170499999Y-99256819D01*
X170499999Y-99256819D02*
X170119047Y-99256819D01*
X170119047Y-99256819D02*
X170023809Y-99304438D01*
X170023809Y-99304438D02*
X169976190Y-99352057D01*
X169976190Y-99352057D02*
X169928571Y-99447295D01*
X169928571Y-99447295D02*
X169928571Y-99590152D01*
X169928571Y-99590152D02*
X169976190Y-99685390D01*
X169976190Y-99685390D02*
X170023809Y-99733009D01*
X170023809Y-99733009D02*
X170119047Y-99780628D01*
X170119047Y-99780628D02*
X170499999Y-99780628D01*
X169166666Y-99733009D02*
X169023809Y-99780628D01*
X169023809Y-99780628D02*
X168976190Y-99828247D01*
X168976190Y-99828247D02*
X168928571Y-99923485D01*
X168928571Y-99923485D02*
X168928571Y-100066342D01*
X168928571Y-100066342D02*
X168976190Y-100161580D01*
X168976190Y-100161580D02*
X169023809Y-100209200D01*
X169023809Y-100209200D02*
X169119047Y-100256819D01*
X169119047Y-100256819D02*
X169499999Y-100256819D01*
X169499999Y-100256819D02*
X169499999Y-99256819D01*
X169499999Y-99256819D02*
X169166666Y-99256819D01*
X169166666Y-99256819D02*
X169071428Y-99304438D01*
X169071428Y-99304438D02*
X169023809Y-99352057D01*
X169023809Y-99352057D02*
X168976190Y-99447295D01*
X168976190Y-99447295D02*
X168976190Y-99542533D01*
X168976190Y-99542533D02*
X169023809Y-99637771D01*
X169023809Y-99637771D02*
X169071428Y-99685390D01*
X169071428Y-99685390D02*
X169166666Y-99733009D01*
X169166666Y-99733009D02*
X169499999Y-99733009D01*
X168642856Y-99590152D02*
X168261904Y-99590152D01*
X168499999Y-99256819D02*
X168499999Y-100113961D01*
X168499999Y-100113961D02*
X168452380Y-100209200D01*
X168452380Y-100209200D02*
X168357142Y-100256819D01*
X168357142Y-100256819D02*
X168261904Y-100256819D01*
X167928570Y-99590152D02*
X167928570Y-100256819D01*
X167928570Y-99685390D02*
X167880951Y-99637771D01*
X167880951Y-99637771D02*
X167785713Y-99590152D01*
X167785713Y-99590152D02*
X167642856Y-99590152D01*
X167642856Y-99590152D02*
X167547618Y-99637771D01*
X167547618Y-99637771D02*
X167499999Y-99733009D01*
X167499999Y-99733009D02*
X167499999Y-100256819D01*
X147666666Y-113359580D02*
X147714285Y-113407200D01*
X147714285Y-113407200D02*
X147857142Y-113454819D01*
X147857142Y-113454819D02*
X147952380Y-113454819D01*
X147952380Y-113454819D02*
X148095237Y-113407200D01*
X148095237Y-113407200D02*
X148190475Y-113311961D01*
X148190475Y-113311961D02*
X148238094Y-113216723D01*
X148238094Y-113216723D02*
X148285713Y-113026247D01*
X148285713Y-113026247D02*
X148285713Y-112883390D01*
X148285713Y-112883390D02*
X148238094Y-112692914D01*
X148238094Y-112692914D02*
X148190475Y-112597676D01*
X148190475Y-112597676D02*
X148095237Y-112502438D01*
X148095237Y-112502438D02*
X147952380Y-112454819D01*
X147952380Y-112454819D02*
X147857142Y-112454819D01*
X147857142Y-112454819D02*
X147714285Y-112502438D01*
X147714285Y-112502438D02*
X147666666Y-112550057D01*
X147333332Y-112454819D02*
X146666666Y-112454819D01*
X146666666Y-112454819D02*
X147095237Y-113454819D01*
X143166666Y-116359580D02*
X143214285Y-116407200D01*
X143214285Y-116407200D02*
X143357142Y-116454819D01*
X143357142Y-116454819D02*
X143452380Y-116454819D01*
X143452380Y-116454819D02*
X143595237Y-116407200D01*
X143595237Y-116407200D02*
X143690475Y-116311961D01*
X143690475Y-116311961D02*
X143738094Y-116216723D01*
X143738094Y-116216723D02*
X143785713Y-116026247D01*
X143785713Y-116026247D02*
X143785713Y-115883390D01*
X143785713Y-115883390D02*
X143738094Y-115692914D01*
X143738094Y-115692914D02*
X143690475Y-115597676D01*
X143690475Y-115597676D02*
X143595237Y-115502438D01*
X143595237Y-115502438D02*
X143452380Y-115454819D01*
X143452380Y-115454819D02*
X143357142Y-115454819D01*
X143357142Y-115454819D02*
X143214285Y-115502438D01*
X143214285Y-115502438D02*
X143166666Y-115550057D01*
X142690475Y-116454819D02*
X142499999Y-116454819D01*
X142499999Y-116454819D02*
X142404761Y-116407200D01*
X142404761Y-116407200D02*
X142357142Y-116359580D01*
X142357142Y-116359580D02*
X142261904Y-116216723D01*
X142261904Y-116216723D02*
X142214285Y-116026247D01*
X142214285Y-116026247D02*
X142214285Y-115645295D01*
X142214285Y-115645295D02*
X142261904Y-115550057D01*
X142261904Y-115550057D02*
X142309523Y-115502438D01*
X142309523Y-115502438D02*
X142404761Y-115454819D01*
X142404761Y-115454819D02*
X142595237Y-115454819D01*
X142595237Y-115454819D02*
X142690475Y-115502438D01*
X142690475Y-115502438D02*
X142738094Y-115550057D01*
X142738094Y-115550057D02*
X142785713Y-115645295D01*
X142785713Y-115645295D02*
X142785713Y-115883390D01*
X142785713Y-115883390D02*
X142738094Y-115978628D01*
X142738094Y-115978628D02*
X142690475Y-116026247D01*
X142690475Y-116026247D02*
X142595237Y-116073866D01*
X142595237Y-116073866D02*
X142404761Y-116073866D01*
X142404761Y-116073866D02*
X142309523Y-116026247D01*
X142309523Y-116026247D02*
X142261904Y-115978628D01*
X142261904Y-115978628D02*
X142214285Y-115883390D01*
X149666666Y-88145180D02*
X149666666Y-87430895D01*
X149666666Y-87430895D02*
X149619047Y-87288038D01*
X149619047Y-87288038D02*
X149523809Y-87192800D01*
X149523809Y-87192800D02*
X149380952Y-87145180D01*
X149380952Y-87145180D02*
X149285714Y-87145180D01*
X150666666Y-87145180D02*
X150095238Y-87145180D01*
X150380952Y-87145180D02*
X150380952Y-88145180D01*
X150380952Y-88145180D02*
X150285714Y-88002323D01*
X150285714Y-88002323D02*
X150190476Y-87907085D01*
X150190476Y-87907085D02*
X150095238Y-87859466D01*
D11*
X182907593Y-104023810D02*
X183764736Y-104023810D01*
X183764736Y-104023810D02*
X183859974Y-103976191D01*
X183859974Y-103976191D02*
X183907593Y-103880953D01*
X183907593Y-103880953D02*
X183907593Y-103833334D01*
X182574260Y-104023810D02*
X182621879Y-103976191D01*
X182621879Y-103976191D02*
X182669498Y-104023810D01*
X182669498Y-104023810D02*
X182621879Y-104071429D01*
X182621879Y-104071429D02*
X182574260Y-104023810D01*
X182574260Y-104023810D02*
X182669498Y-104023810D01*
X182574260Y-104976190D02*
X182574260Y-104500000D01*
X182574260Y-104500000D02*
X183050450Y-104452381D01*
X183050450Y-104452381D02*
X183002831Y-104500000D01*
X183002831Y-104500000D02*
X182955212Y-104595238D01*
X182955212Y-104595238D02*
X182955212Y-104833333D01*
X182955212Y-104833333D02*
X183002831Y-104928571D01*
X183002831Y-104928571D02*
X183050450Y-104976190D01*
X183050450Y-104976190D02*
X183145688Y-105023809D01*
X183145688Y-105023809D02*
X183383783Y-105023809D01*
X183383783Y-105023809D02*
X183479021Y-104976190D01*
X183479021Y-104976190D02*
X183526641Y-104928571D01*
X183526641Y-104928571D02*
X183574260Y-104833333D01*
X183574260Y-104833333D02*
X183574260Y-104595238D01*
X183574260Y-104595238D02*
X183526641Y-104500000D01*
X183526641Y-104500000D02*
X183479021Y-104452381D01*
D10*
X150524819Y-89833333D02*
X150048628Y-89500000D01*
X150524819Y-89261905D02*
X149524819Y-89261905D01*
X149524819Y-89261905D02*
X149524819Y-89642857D01*
X149524819Y-89642857D02*
X149572438Y-89738095D01*
X149572438Y-89738095D02*
X149620057Y-89785714D01*
X149620057Y-89785714D02*
X149715295Y-89833333D01*
X149715295Y-89833333D02*
X149858152Y-89833333D01*
X149858152Y-89833333D02*
X149953390Y-89785714D01*
X149953390Y-89785714D02*
X150001009Y-89738095D01*
X150001009Y-89738095D02*
X150048628Y-89642857D01*
X150048628Y-89642857D02*
X150048628Y-89261905D01*
X150524819Y-90785714D02*
X150524819Y-90214286D01*
X150524819Y-90500000D02*
X149524819Y-90500000D01*
X149524819Y-90500000D02*
X149667676Y-90404762D01*
X149667676Y-90404762D02*
X149762914Y-90309524D01*
X149762914Y-90309524D02*
X149810533Y-90214286D01*
X165633332Y-86862295D02*
X165899999Y-86481342D01*
X166090475Y-86862295D02*
X166090475Y-86062295D01*
X166090475Y-86062295D02*
X165785713Y-86062295D01*
X165785713Y-86062295D02*
X165709523Y-86100390D01*
X165709523Y-86100390D02*
X165671428Y-86138485D01*
X165671428Y-86138485D02*
X165633332Y-86214676D01*
X165633332Y-86214676D02*
X165633332Y-86328961D01*
X165633332Y-86328961D02*
X165671428Y-86405152D01*
X165671428Y-86405152D02*
X165709523Y-86443247D01*
X165709523Y-86443247D02*
X165785713Y-86481342D01*
X165785713Y-86481342D02*
X166090475Y-86481342D01*
X164947618Y-86062295D02*
X165099999Y-86062295D01*
X165099999Y-86062295D02*
X165176190Y-86100390D01*
X165176190Y-86100390D02*
X165214285Y-86138485D01*
X165214285Y-86138485D02*
X165290475Y-86252771D01*
X165290475Y-86252771D02*
X165328571Y-86405152D01*
X165328571Y-86405152D02*
X165328571Y-86709914D01*
X165328571Y-86709914D02*
X165290475Y-86786104D01*
X165290475Y-86786104D02*
X165252380Y-86824200D01*
X165252380Y-86824200D02*
X165176190Y-86862295D01*
X165176190Y-86862295D02*
X165023809Y-86862295D01*
X165023809Y-86862295D02*
X164947618Y-86824200D01*
X164947618Y-86824200D02*
X164909523Y-86786104D01*
X164909523Y-86786104D02*
X164871428Y-86709914D01*
X164871428Y-86709914D02*
X164871428Y-86519438D01*
X164871428Y-86519438D02*
X164909523Y-86443247D01*
X164909523Y-86443247D02*
X164947618Y-86405152D01*
X164947618Y-86405152D02*
X165023809Y-86367057D01*
X165023809Y-86367057D02*
X165176190Y-86367057D01*
X165176190Y-86367057D02*
X165252380Y-86405152D01*
X165252380Y-86405152D02*
X165290475Y-86443247D01*
X165290475Y-86443247D02*
X165328571Y-86519438D01*
X178268509Y-84764285D02*
X178316128Y-84907142D01*
X178316128Y-84907142D02*
X178363747Y-84954761D01*
X178363747Y-84954761D02*
X178458985Y-85002380D01*
X178458985Y-85002380D02*
X178601842Y-85002380D01*
X178601842Y-85002380D02*
X178697080Y-84954761D01*
X178697080Y-84954761D02*
X178744700Y-84907142D01*
X178744700Y-84907142D02*
X178792319Y-84811904D01*
X178792319Y-84811904D02*
X178792319Y-84430952D01*
X178792319Y-84430952D02*
X177792319Y-84430952D01*
X177792319Y-84430952D02*
X177792319Y-84764285D01*
X177792319Y-84764285D02*
X177839938Y-84859523D01*
X177839938Y-84859523D02*
X177887557Y-84907142D01*
X177887557Y-84907142D02*
X177982795Y-84954761D01*
X177982795Y-84954761D02*
X178078033Y-84954761D01*
X178078033Y-84954761D02*
X178173271Y-84907142D01*
X178173271Y-84907142D02*
X178220890Y-84859523D01*
X178220890Y-84859523D02*
X178268509Y-84764285D01*
X178268509Y-84764285D02*
X178268509Y-84430952D01*
X177792319Y-85288095D02*
X177792319Y-85859523D01*
X178792319Y-85573809D02*
X177792319Y-85573809D01*
X178792319Y-86716666D02*
X178792319Y-86145238D01*
X178792319Y-86430952D02*
X177792319Y-86430952D01*
X177792319Y-86430952D02*
X177935176Y-86335714D01*
X177935176Y-86335714D02*
X178030414Y-86240476D01*
X178030414Y-86240476D02*
X178078033Y-86145238D01*
X161116666Y-86789580D02*
X161164285Y-86837200D01*
X161164285Y-86837200D02*
X161307142Y-86884819D01*
X161307142Y-86884819D02*
X161402380Y-86884819D01*
X161402380Y-86884819D02*
X161545237Y-86837200D01*
X161545237Y-86837200D02*
X161640475Y-86741961D01*
X161640475Y-86741961D02*
X161688094Y-86646723D01*
X161688094Y-86646723D02*
X161735713Y-86456247D01*
X161735713Y-86456247D02*
X161735713Y-86313390D01*
X161735713Y-86313390D02*
X161688094Y-86122914D01*
X161688094Y-86122914D02*
X161640475Y-86027676D01*
X161640475Y-86027676D02*
X161545237Y-85932438D01*
X161545237Y-85932438D02*
X161402380Y-85884819D01*
X161402380Y-85884819D02*
X161307142Y-85884819D01*
X161307142Y-85884819D02*
X161164285Y-85932438D01*
X161164285Y-85932438D02*
X161116666Y-85980057D01*
X160164285Y-86884819D02*
X160735713Y-86884819D01*
X160449999Y-86884819D02*
X160449999Y-85884819D01*
X160449999Y-85884819D02*
X160545237Y-86027676D01*
X160545237Y-86027676D02*
X160640475Y-86122914D01*
X160640475Y-86122914D02*
X160735713Y-86170533D01*
X147524819Y-89833333D02*
X147048628Y-89500000D01*
X147524819Y-89261905D02*
X146524819Y-89261905D01*
X146524819Y-89261905D02*
X146524819Y-89642857D01*
X146524819Y-89642857D02*
X146572438Y-89738095D01*
X146572438Y-89738095D02*
X146620057Y-89785714D01*
X146620057Y-89785714D02*
X146715295Y-89833333D01*
X146715295Y-89833333D02*
X146858152Y-89833333D01*
X146858152Y-89833333D02*
X146953390Y-89785714D01*
X146953390Y-89785714D02*
X147001009Y-89738095D01*
X147001009Y-89738095D02*
X147048628Y-89642857D01*
X147048628Y-89642857D02*
X147048628Y-89261905D01*
X146620057Y-90214286D02*
X146572438Y-90261905D01*
X146572438Y-90261905D02*
X146524819Y-90357143D01*
X146524819Y-90357143D02*
X146524819Y-90595238D01*
X146524819Y-90595238D02*
X146572438Y-90690476D01*
X146572438Y-90690476D02*
X146620057Y-90738095D01*
X146620057Y-90738095D02*
X146715295Y-90785714D01*
X146715295Y-90785714D02*
X146810533Y-90785714D01*
X146810533Y-90785714D02*
X146953390Y-90738095D01*
X146953390Y-90738095D02*
X147524819Y-90166667D01*
X147524819Y-90166667D02*
X147524819Y-90785714D01*
X177166666Y-81429580D02*
X177214285Y-81477200D01*
X177214285Y-81477200D02*
X177357142Y-81524819D01*
X177357142Y-81524819D02*
X177452380Y-81524819D01*
X177452380Y-81524819D02*
X177595237Y-81477200D01*
X177595237Y-81477200D02*
X177690475Y-81381961D01*
X177690475Y-81381961D02*
X177738094Y-81286723D01*
X177738094Y-81286723D02*
X177785713Y-81096247D01*
X177785713Y-81096247D02*
X177785713Y-80953390D01*
X177785713Y-80953390D02*
X177738094Y-80762914D01*
X177738094Y-80762914D02*
X177690475Y-80667676D01*
X177690475Y-80667676D02*
X177595237Y-80572438D01*
X177595237Y-80572438D02*
X177452380Y-80524819D01*
X177452380Y-80524819D02*
X177357142Y-80524819D01*
X177357142Y-80524819D02*
X177214285Y-80572438D01*
X177214285Y-80572438D02*
X177166666Y-80620057D01*
X176785713Y-80620057D02*
X176738094Y-80572438D01*
X176738094Y-80572438D02*
X176642856Y-80524819D01*
X176642856Y-80524819D02*
X176404761Y-80524819D01*
X176404761Y-80524819D02*
X176309523Y-80572438D01*
X176309523Y-80572438D02*
X176261904Y-80620057D01*
X176261904Y-80620057D02*
X176214285Y-80715295D01*
X176214285Y-80715295D02*
X176214285Y-80810533D01*
X176214285Y-80810533D02*
X176261904Y-80953390D01*
X176261904Y-80953390D02*
X176833332Y-81524819D01*
X176833332Y-81524819D02*
X176214285Y-81524819D01*
X161133332Y-81362295D02*
X161399999Y-80981342D01*
X161590475Y-81362295D02*
X161590475Y-80562295D01*
X161590475Y-80562295D02*
X161285713Y-80562295D01*
X161285713Y-80562295D02*
X161209523Y-80600390D01*
X161209523Y-80600390D02*
X161171428Y-80638485D01*
X161171428Y-80638485D02*
X161133332Y-80714676D01*
X161133332Y-80714676D02*
X161133332Y-80828961D01*
X161133332Y-80828961D02*
X161171428Y-80905152D01*
X161171428Y-80905152D02*
X161209523Y-80943247D01*
X161209523Y-80943247D02*
X161285713Y-80981342D01*
X161285713Y-80981342D02*
X161590475Y-80981342D01*
X160866666Y-80562295D02*
X160333332Y-80562295D01*
X160333332Y-80562295D02*
X160676190Y-81362295D01*
X171624404Y-85504819D02*
X171624404Y-86314342D01*
X171624404Y-86314342D02*
X171576785Y-86409580D01*
X171576785Y-86409580D02*
X171529166Y-86457200D01*
X171529166Y-86457200D02*
X171433928Y-86504819D01*
X171433928Y-86504819D02*
X171243452Y-86504819D01*
X171243452Y-86504819D02*
X171148214Y-86457200D01*
X171148214Y-86457200D02*
X171100595Y-86409580D01*
X171100595Y-86409580D02*
X171052976Y-86314342D01*
X171052976Y-86314342D02*
X171052976Y-85504819D01*
X170624404Y-85600057D02*
X170576785Y-85552438D01*
X170576785Y-85552438D02*
X170481547Y-85504819D01*
X170481547Y-85504819D02*
X170243452Y-85504819D01*
X170243452Y-85504819D02*
X170148214Y-85552438D01*
X170148214Y-85552438D02*
X170100595Y-85600057D01*
X170100595Y-85600057D02*
X170052976Y-85695295D01*
X170052976Y-85695295D02*
X170052976Y-85790533D01*
X170052976Y-85790533D02*
X170100595Y-85933390D01*
X170100595Y-85933390D02*
X170672023Y-86504819D01*
X170672023Y-86504819D02*
X170052976Y-86504819D01*
X166738094Y-81564819D02*
X166738094Y-80564819D01*
X166738094Y-80564819D02*
X166499999Y-80564819D01*
X166499999Y-80564819D02*
X166357142Y-80612438D01*
X166357142Y-80612438D02*
X166261904Y-80707676D01*
X166261904Y-80707676D02*
X166214285Y-80802914D01*
X166214285Y-80802914D02*
X166166666Y-80993390D01*
X166166666Y-80993390D02*
X166166666Y-81136247D01*
X166166666Y-81136247D02*
X166214285Y-81326723D01*
X166214285Y-81326723D02*
X166261904Y-81421961D01*
X166261904Y-81421961D02*
X166357142Y-81517200D01*
X166357142Y-81517200D02*
X166499999Y-81564819D01*
X166499999Y-81564819D02*
X166738094Y-81564819D01*
X165785713Y-80660057D02*
X165738094Y-80612438D01*
X165738094Y-80612438D02*
X165642856Y-80564819D01*
X165642856Y-80564819D02*
X165404761Y-80564819D01*
X165404761Y-80564819D02*
X165309523Y-80612438D01*
X165309523Y-80612438D02*
X165261904Y-80660057D01*
X165261904Y-80660057D02*
X165214285Y-80755295D01*
X165214285Y-80755295D02*
X165214285Y-80850533D01*
X165214285Y-80850533D02*
X165261904Y-80993390D01*
X165261904Y-80993390D02*
X165833332Y-81564819D01*
X165833332Y-81564819D02*
X165214285Y-81564819D01*
D11*
X115784555Y-104463427D02*
X116641698Y-104463427D01*
X116641698Y-104463427D02*
X116736936Y-104415808D01*
X116736936Y-104415808D02*
X116784555Y-104320570D01*
X116784555Y-104320570D02*
X116784555Y-104272951D01*
X115451222Y-104463427D02*
X115498841Y-104415808D01*
X115498841Y-104415808D02*
X115546460Y-104463427D01*
X115546460Y-104463427D02*
X115498841Y-104511046D01*
X115498841Y-104511046D02*
X115451222Y-104463427D01*
X115451222Y-104463427D02*
X115546460Y-104463427D01*
X115784555Y-105368188D02*
X116451222Y-105368188D01*
X115403603Y-105130093D02*
X116117888Y-104891998D01*
X116117888Y-104891998D02*
X116117888Y-105511045D01*
%TO.C,R5*%
D12*
X149754724Y-119022500D02*
X149245276Y-119022500D01*
X149754724Y-117977500D02*
X149245276Y-117977500D01*
%TO.C,SW1*%
X153160000Y-97800000D02*
X153160000Y-96060000D01*
X153160000Y-94200000D02*
X153160000Y-95940000D01*
X146840000Y-97800000D02*
X153160000Y-97800000D01*
X146840000Y-97800000D02*
X146840000Y-96850000D01*
X146840000Y-94200000D02*
X153160000Y-94200000D01*
X146840000Y-94200000D02*
X146840000Y-95940000D01*
X144800000Y-96850000D02*
X146840000Y-96850000D01*
%TO.C,C8*%
X150146267Y-125490000D02*
X149853733Y-125490000D01*
X150146267Y-126510000D02*
X149853733Y-126510000D01*
%TO.C,C6*%
X159490000Y-119853733D02*
X159490000Y-120146267D01*
X160510000Y-119853733D02*
X160510000Y-120146267D01*
%TO.C,C7*%
X147353733Y-115010000D02*
X147646267Y-115010000D01*
X147353733Y-113990000D02*
X147646267Y-113990000D01*
%TO.C,C9*%
X142490000Y-118353733D02*
X142490000Y-118646267D01*
X143510000Y-118353733D02*
X143510000Y-118646267D01*
%TO.C,J1*%
X145330000Y-82750000D02*
X145330000Y-84450000D01*
X154670000Y-82750000D02*
X154670000Y-84450000D01*
%TO.C,j5*%
D13*
X171111519Y-99000000D02*
X175211519Y-99000000D01*
X171111519Y-109900000D02*
X171111519Y-99000000D01*
X175211519Y-99000000D02*
X175211519Y-98370000D01*
X175211519Y-109900000D02*
X171111519Y-109900000D01*
X175211519Y-110520000D02*
X175211519Y-109900000D01*
X178311519Y-115550000D02*
X178311519Y-112400000D01*
X179111519Y-94950000D02*
X187211519Y-94950000D01*
X179111519Y-96500000D02*
X179111519Y-94950000D01*
X187211519Y-94950000D02*
X187211519Y-96500000D01*
X187211519Y-96500000D02*
X188331519Y-96500000D01*
X188111519Y-112400000D02*
X188111519Y-115550000D01*
X188111519Y-115550000D02*
X178311519Y-115550000D01*
X188381519Y-112400000D02*
X188111519Y-112400000D01*
X191111519Y-98370000D02*
X191111519Y-99600000D01*
X191111519Y-99600000D02*
X194311519Y-99600000D01*
X191111519Y-109300000D02*
X191111519Y-110520000D01*
X194311519Y-109300000D02*
X191111519Y-109300000D01*
D14*
X173711519Y-110500000D02*
G75*
G02*
X173511519Y-110500000I-100000J0D01*
G01*
X173511519Y-110500000D02*
G75*
G02*
X173711519Y-110500000I100000J0D01*
G01*
%TO.C,R1*%
D12*
X150977500Y-89745276D02*
X150977500Y-90254724D01*
X152022500Y-89745276D02*
X152022500Y-90254724D01*
%TO.C,R6*%
X165754724Y-84477500D02*
X165245276Y-84477500D01*
X165754724Y-85522500D02*
X165245276Y-85522500D01*
%TO.C,BT1*%
X180827500Y-81490000D02*
X180827500Y-82510000D01*
X180827500Y-82510000D02*
X182427500Y-82510000D01*
X180827500Y-88590000D02*
X182427500Y-88590000D01*
X180827500Y-89610000D02*
X180827500Y-88590000D01*
X182427500Y-82510000D02*
X182427500Y-83790000D01*
X182427500Y-83790000D02*
X179537500Y-83790000D01*
X182427500Y-88590000D02*
X182427500Y-87310000D01*
X185077500Y-81490000D02*
X180827500Y-81490000D01*
X185077500Y-89610000D02*
X180827500Y-89610000D01*
X188647500Y-83210000D02*
X188647500Y-87890000D01*
%TO.C,C1*%
X160803733Y-84490000D02*
X161096267Y-84490000D01*
X160803733Y-85510000D02*
X161096267Y-85510000D01*
%TO.C,R2*%
X147977500Y-89745276D02*
X147977500Y-90254724D01*
X149022500Y-89745276D02*
X149022500Y-90254724D01*
%TO.C,C2*%
X177146267Y-81990000D02*
X176853733Y-81990000D01*
X177146267Y-83010000D02*
X176853733Y-83010000D01*
%TO.C,R7*%
X160745276Y-81977500D02*
X161254724Y-81977500D01*
X160745276Y-83022500D02*
X161254724Y-83022500D01*
%TO.C,U2*%
X169952500Y-86890000D02*
X169952500Y-86940000D01*
X169952500Y-88060000D02*
X169952500Y-88840000D01*
X169952500Y-89960000D02*
X169952500Y-90010000D01*
X169952500Y-90010000D02*
X171772500Y-90010000D01*
X171772500Y-86890000D02*
X169952500Y-86890000D01*
X171772500Y-86940000D02*
X171772500Y-86890000D01*
X171772500Y-90010000D02*
X171772500Y-89960000D01*
X172312500Y-86940000D02*
X172072500Y-86610000D01*
X172552500Y-86610000D01*
X172312500Y-86940000D01*
G36*
X172312500Y-86940000D02*
G01*
X172072500Y-86610000D01*
X172552500Y-86610000D01*
X172312500Y-86940000D01*
G37*
%TO.C,D2*%
X164400000Y-81805000D02*
X168285000Y-81805000D01*
X168285000Y-81805000D02*
X168285000Y-84075000D01*
X168285000Y-84075000D02*
X164400000Y-84075000D01*
%TO.C,j4*%
D13*
X103988481Y-99439617D02*
X108088481Y-99439617D01*
X103988481Y-110339617D02*
X103988481Y-99439617D01*
X108088481Y-99439617D02*
X108088481Y-98809617D01*
X108088481Y-110339617D02*
X103988481Y-110339617D01*
X108088481Y-110959617D02*
X108088481Y-110339617D01*
X111188481Y-115989617D02*
X111188481Y-112839617D01*
X111988481Y-95389617D02*
X120088481Y-95389617D01*
X111988481Y-96939617D02*
X111988481Y-95389617D01*
X120088481Y-95389617D02*
X120088481Y-96939617D01*
X120088481Y-96939617D02*
X121208481Y-96939617D01*
X120988481Y-112839617D02*
X120988481Y-115989617D01*
X120988481Y-115989617D02*
X111188481Y-115989617D01*
X121258481Y-112839617D02*
X120988481Y-112839617D01*
X123988481Y-98809617D02*
X123988481Y-100039617D01*
X123988481Y-100039617D02*
X127188481Y-100039617D01*
X123988481Y-109739617D02*
X123988481Y-110959617D01*
X127188481Y-109739617D02*
X123988481Y-109739617D01*
D14*
X106588481Y-110939617D02*
G75*
G02*
X106388481Y-110939617I-100000J0D01*
G01*
X106388481Y-110939617D02*
G75*
G02*
X106588481Y-110939617I100000J0D01*
G01*
%TD*%
M02*
