%TF.GenerationSoftware,KiCad,Pcbnew,10.0.1*%
%TF.CreationDate,2026-05-03T22:47:29-04:00*%
%TF.ProjectId,rc-car-remote,72632d63-6172-42d7-9265-6d6f74652e6b,rev?*%
%TF.SameCoordinates,Original*%
%TF.FileFunction,Soldermask,Bot*%
%TF.FilePolarity,Negative*%
%FSLAX46Y46*%
G04 Gerber Fmt 4.6, Leading zero omitted, Abs format (unit mm)*
G04 Created by KiCad (PCBNEW 10.0.1) date 2026-05-03 22:47:29*
%MOMM*%
%LPD*%
G01*
G04 APERTURE LIST*
G04 Aperture macros list*
%AMRoundRect*
0 Rectangle with rounded corners*
0 $1 Rounding radius*
0 $2 $3 $4 $5 $6 $7 $8 $9 X,Y pos of 4 corners*
0 Add a 4 corners polygon primitive as box body*
4,1,4,$2,$3,$4,$5,$6,$7,$8,$9,$2,$3,0*
0 Add four circle primitives for the rounded corners*
1,1,$1+$1,$2,$3*
1,1,$1+$1,$4,$5*
1,1,$1+$1,$6,$7*
1,1,$1+$1,$8,$9*
0 Add four rect primitives between the rounded corners*
20,1,$1+$1,$2,$3,$4,$5,0*
20,1,$1+$1,$4,$5,$6,$7,0*
20,1,$1+$1,$6,$7,$8,$9,0*
20,1,$1+$1,$8,$9,$2,$3,0*%
G04 Aperture macros list end*
%ADD10C,3.800000*%
%ADD11RoundRect,0.237500X0.250000X0.237500X-0.250000X0.237500X-0.250000X-0.237500X0.250000X-0.237500X0*%
%ADD12C,1.700000*%
%ADD13R,1.700000X1.700000*%
%ADD14RoundRect,0.250000X-0.500000X-0.300000X0.500000X-0.300000X0.500000X0.300000X-0.500000X0.300000X0*%
%ADD15RoundRect,0.237500X0.300000X0.237500X-0.300000X0.237500X-0.300000X-0.237500X0.300000X-0.237500X0*%
%ADD16RoundRect,0.237500X-0.237500X0.300000X-0.237500X-0.300000X0.237500X-0.300000X0.237500X0.300000X0*%
%ADD17RoundRect,0.237500X-0.300000X-0.237500X0.300000X-0.237500X0.300000X0.237500X-0.300000X0.237500X0*%
%ADD18RoundRect,0.175000X-0.175000X-0.425000X0.175000X-0.425000X0.175000X0.425000X-0.175000X0.425000X0*%
%ADD19RoundRect,0.190000X0.190000X0.410000X-0.190000X0.410000X-0.190000X-0.410000X0.190000X-0.410000X0*%
%ADD20RoundRect,0.200000X0.200000X0.400000X-0.200000X0.400000X-0.200000X-0.400000X0.200000X-0.400000X0*%
%ADD21RoundRect,0.175000X0.175000X0.425000X-0.175000X0.425000X-0.175000X-0.425000X0.175000X-0.425000X0*%
%ADD22RoundRect,0.190000X-0.190000X-0.410000X0.190000X-0.410000X0.190000X0.410000X-0.190000X0.410000X0*%
%ADD23RoundRect,0.200000X-0.200000X-0.400000X0.200000X-0.400000X0.200000X0.400000X-0.200000X0.400000X0*%
%ADD24O,1.100000X1.700000*%
%ADD25C,1.982000*%
%ADD26C,2.490000*%
%ADD27RoundRect,0.237500X-0.237500X0.250000X-0.237500X-0.250000X0.237500X-0.250000X0.237500X0.250000X0*%
%ADD28RoundRect,0.250000X-1.500000X0.250000X-1.500000X-0.250000X1.500000X-0.250000X1.500000X0.250000X0*%
%ADD29RoundRect,0.250001X-1.449999X0.499999X-1.449999X-0.499999X1.449999X-0.499999X1.449999X0.499999X0*%
%ADD30RoundRect,0.237500X-0.250000X-0.237500X0.250000X-0.237500X0.250000X0.237500X-0.250000X0.237500X0*%
%ADD31RoundRect,0.150000X0.512500X0.150000X-0.512500X0.150000X-0.512500X-0.150000X0.512500X-0.150000X0*%
%ADD32RoundRect,0.250000X0.375000X0.625000X-0.375000X0.625000X-0.375000X-0.625000X0.375000X-0.625000X0*%
G04 APERTURE END LIST*
D10*
%TO.C,REF\u002A\u002A*%
X97150000Y-87150000D03*
%TD*%
%TO.C,REF\u002A\u002A*%
X202850000Y-120850000D03*
%TD*%
%TO.C,REF\u002A\u002A*%
X97150000Y-120850000D03*
%TD*%
%TO.C,REF\u002A\u002A*%
X202850000Y-87150000D03*
%TD*%
D11*
%TO.C,R5*%
X148587500Y-118500000D03*
X150412500Y-118500000D03*
%TD*%
D12*
%TO.C,J2*%
X137000000Y-108660000D03*
X134460000Y-108660000D03*
X137000000Y-106120000D03*
X134460000Y-106120000D03*
X137000000Y-103580000D03*
X134460000Y-103580000D03*
X137000000Y-101040000D03*
X134460000Y-101040000D03*
X137000000Y-98500000D03*
D13*
X134460000Y-98500000D03*
%TD*%
%TO.C,J3*%
X146190000Y-102775000D03*
D12*
X146190000Y-100235000D03*
X148730000Y-102775000D03*
X148730000Y-100235000D03*
X151270000Y-102775000D03*
X151270000Y-100235000D03*
X153810000Y-102775000D03*
X153810000Y-100235000D03*
%TD*%
D14*
%TO.C,SW1*%
X154450000Y-96000000D03*
X145550000Y-96000000D03*
%TD*%
D15*
%TO.C,C8*%
X150862500Y-126000000D03*
X149137500Y-126000000D03*
%TD*%
D16*
%TO.C,C6*%
X160000000Y-119137500D03*
X160000000Y-120862500D03*
%TD*%
D17*
%TO.C,C7*%
X146637500Y-114500000D03*
X148362500Y-114500000D03*
%TD*%
D16*
%TO.C,C9*%
X143000000Y-117637500D03*
X143000000Y-119362500D03*
%TD*%
D18*
%TO.C,J1*%
X149500000Y-85580000D03*
D19*
X151520000Y-85580000D03*
D20*
X152750000Y-85580000D03*
D21*
X150500000Y-85580000D03*
D22*
X148480000Y-85580000D03*
D23*
X147250000Y-85580000D03*
D24*
X145680000Y-81700000D03*
X145680000Y-85500000D03*
X154320000Y-81700000D03*
X154320000Y-85500000D03*
%TD*%
D25*
%TO.C,j5*%
X192211519Y-102000000D03*
X186111519Y-113230000D03*
X192341519Y-107000000D03*
X181111519Y-113230000D03*
X183611519Y-113230000D03*
X192341519Y-104500000D03*
X173361519Y-101250000D03*
X173361519Y-107750000D03*
X177861519Y-101250000D03*
X177861519Y-107750000D03*
D26*
X178611519Y-110825000D03*
X188611519Y-110825000D03*
X188611519Y-98175000D03*
X178611519Y-98175000D03*
%TD*%
D27*
%TO.C,R1*%
X151500000Y-89087500D03*
X151500000Y-90912500D03*
%TD*%
D11*
%TO.C,R6*%
X166412500Y-85000000D03*
X164587500Y-85000000D03*
%TD*%
D28*
%TO.C,BT1*%
X181287500Y-84550000D03*
X181287500Y-86550000D03*
D29*
X187037500Y-82200000D03*
X187037500Y-88900000D03*
%TD*%
D17*
%TO.C,C1*%
X160087500Y-85000000D03*
X161812500Y-85000000D03*
%TD*%
D27*
%TO.C,R2*%
X148500000Y-89087500D03*
X148500000Y-90912500D03*
%TD*%
D15*
%TO.C,C2*%
X177862500Y-82500000D03*
X176137500Y-82500000D03*
%TD*%
D30*
%TO.C,R7*%
X160087500Y-82500000D03*
X161912500Y-82500000D03*
%TD*%
D31*
%TO.C,U2*%
X172000000Y-87500000D03*
X172000000Y-88450000D03*
X172000000Y-89400000D03*
X169725000Y-89400000D03*
X169725000Y-87500000D03*
%TD*%
D32*
%TO.C,D2*%
X167400000Y-82940000D03*
X164600000Y-82940000D03*
%TD*%
D25*
%TO.C,j4*%
X125088481Y-102439617D03*
X118988481Y-113669617D03*
X125218481Y-107439617D03*
X113988481Y-113669617D03*
X116488481Y-113669617D03*
X125218481Y-104939617D03*
X106238481Y-101689617D03*
X106238481Y-108189617D03*
X110738481Y-101689617D03*
X110738481Y-108189617D03*
D26*
X111488481Y-111264617D03*
X121488481Y-111264617D03*
X121488481Y-98614617D03*
X111488481Y-98614617D03*
%TD*%
M02*
