%TF.GenerationSoftware,KiCad,Pcbnew,10.0.1*%
%TF.CreationDate,2026-05-03T22:47:29-04:00*%
%TF.ProjectId,rc-car-remote,72632d63-6172-42d7-9265-6d6f74652e6b,rev?*%
%TF.SameCoordinates,Original*%
%TF.FileFunction,Soldermask,Top*%
%TF.FilePolarity,Negative*%
%FSLAX46Y46*%
G04 Gerber Fmt 4.6, Leading zero omitted, Abs format (unit mm)*
G04 Created by KiCad (PCBNEW 10.0.1) date 2026-05-03 22:47:29*
%MOMM*%
%LPD*%
G01*
G04 APERTURE LIST*
G04 Aperture macros list*
%AMRoundRect*
0 Rectangle with rounded corners*
0 $1 Rounding radius*
0 $2 $3 $4 $5 $6 $7 $8 $9 X,Y pos of 4 corners*
0 Add a 4 corners polygon primitive as box body*
4,1,4,$2,$3,$4,$5,$6,$7,$8,$9,$2,$3,0*
0 Add four circle primitives for the rounded corners*
1,1,$1+$1,$2,$3*
1,1,$1+$1,$4,$5*
1,1,$1+$1,$6,$7*
1,1,$1+$1,$8,$9*
0 Add four rect primitives between the rounded corners*
20,1,$1+$1,$2,$3,$4,$5,0*
20,1,$1+$1,$4,$5,$6,$7,0*
20,1,$1+$1,$6,$7,$8,$9,0*
20,1,$1+$1,$8,$9,$2,$3,0*%
G04 Aperture macros list end*
%ADD10RoundRect,0.237500X-0.250000X-0.237500X0.250000X-0.237500X0.250000X0.237500X-0.250000X0.237500X0*%
%ADD11C,3.800000*%
%ADD12RoundRect,0.250000X0.375000X0.625000X-0.375000X0.625000X-0.375000X-0.625000X0.375000X-0.625000X0*%
%ADD13C,1.700000*%
%ADD14R,1.700000X1.700000*%
%ADD15RoundRect,0.237500X0.300000X0.237500X-0.300000X0.237500X-0.300000X-0.237500X0.300000X-0.237500X0*%
%ADD16R,1.000000X1.000000*%
%ADD17RoundRect,0.137500X-0.137500X0.600000X-0.137500X-0.600000X0.137500X-0.600000X0.137500X0.600000X0*%
%ADD18RoundRect,0.137500X-0.600000X0.137500X-0.600000X-0.137500X0.600000X-0.137500X0.600000X0.137500X0*%
%ADD19RoundRect,0.150000X-0.587500X-0.150000X0.587500X-0.150000X0.587500X0.150000X-0.587500X0.150000X0*%
%ADD20RoundRect,0.150000X0.512500X0.150000X-0.512500X0.150000X-0.512500X-0.150000X0.512500X-0.150000X0*%
%ADD21RoundRect,0.150000X-0.512500X-0.150000X0.512500X-0.150000X0.512500X0.150000X-0.512500X0.150000X0*%
%ADD22O,1.100000X1.700000*%
%ADD23C,1.982000*%
%ADD24C,2.490000*%
G04 APERTURE END LIST*
D10*
%TO.C,R3*%
X177412500Y-89500000D03*
X175587500Y-89500000D03*
%TD*%
D11*
%TO.C,REF\u002A\u002A*%
X97150000Y-87150000D03*
%TD*%
%TO.C,REF\u002A\u002A*%
X202850000Y-120850000D03*
%TD*%
%TO.C,REF\u002A\u002A*%
X97150000Y-120850000D03*
%TD*%
%TO.C,REF\u002A\u002A*%
X202850000Y-87150000D03*
%TD*%
D10*
%TO.C,R4*%
X127502500Y-82248750D03*
X129327500Y-82248750D03*
%TD*%
D12*
%TO.C,D1*%
X127500000Y-86748750D03*
X130300000Y-86748750D03*
%TD*%
D13*
%TO.C,J2*%
X137000000Y-108660000D03*
X134460000Y-108660000D03*
X137000000Y-106120000D03*
X134460000Y-106120000D03*
X137000000Y-103580000D03*
X134460000Y-103580000D03*
X137000000Y-101040000D03*
X134460000Y-101040000D03*
X137000000Y-98500000D03*
D14*
X134460000Y-98500000D03*
%TD*%
%TO.C,J3*%
X146190000Y-102775000D03*
D13*
X146190000Y-100235000D03*
X148730000Y-102775000D03*
X148730000Y-100235000D03*
X151270000Y-102775000D03*
X151270000Y-100235000D03*
X153810000Y-102775000D03*
X153810000Y-100235000D03*
%TD*%
D15*
%TO.C,C3*%
X181362500Y-84325000D03*
X179637500Y-84325000D03*
%TD*%
D10*
%TO.C,R8*%
X159587500Y-85500000D03*
X161412500Y-85500000D03*
%TD*%
D16*
%TO.C,MOSI*%
X156500000Y-108000000D03*
%TD*%
%TO.C,CSN*%
X146000000Y-108000000D03*
%TD*%
%TO.C,MISO*%
X153810000Y-108000000D03*
%TD*%
D17*
%TO.C,U4*%
X154000000Y-112837500D03*
X153200000Y-112837500D03*
X152400000Y-112837500D03*
X151600000Y-112837500D03*
X150800000Y-112837500D03*
X150000000Y-112837500D03*
X149200000Y-112837500D03*
X148400000Y-112837500D03*
X147600000Y-112837500D03*
X146800000Y-112837500D03*
X146000000Y-112837500D03*
D18*
X144337500Y-114500000D03*
X144337500Y-115300000D03*
X144337500Y-116100000D03*
X144337500Y-116900000D03*
X144337500Y-117700000D03*
X144337500Y-118500000D03*
X144337500Y-119300000D03*
X144337500Y-120100000D03*
X144337500Y-120900000D03*
X144337500Y-121700000D03*
X144337500Y-122500000D03*
D17*
X146000000Y-124162500D03*
X146800000Y-124162500D03*
X147600000Y-124162500D03*
X148400000Y-124162500D03*
X149200000Y-124162500D03*
X150000000Y-124162500D03*
X150800000Y-124162500D03*
X151600000Y-124162500D03*
X152400000Y-124162500D03*
X153200000Y-124162500D03*
X154000000Y-124162500D03*
D18*
X155662500Y-122500000D03*
X155662500Y-121700000D03*
X155662500Y-120900000D03*
X155662500Y-120100000D03*
X155662500Y-119300000D03*
X155662500Y-118500000D03*
X155662500Y-117700000D03*
X155662500Y-116900000D03*
X155662500Y-116100000D03*
X155662500Y-115300000D03*
X155662500Y-114500000D03*
%TD*%
D19*
%TO.C,Q1*%
X160062500Y-89050000D03*
X160062500Y-90950000D03*
X161937500Y-90000000D03*
%TD*%
D20*
%TO.C,U1*%
X175137500Y-86275000D03*
X175137500Y-85325000D03*
X175137500Y-84375000D03*
X172862500Y-84375000D03*
X172862500Y-86275000D03*
%TD*%
D16*
%TO.C,Gnd*%
X140000000Y-119300000D03*
%TD*%
D15*
%TO.C,C5*%
X195362500Y-82000000D03*
X193637500Y-82000000D03*
%TD*%
D16*
%TO.C,RBtn*%
X169000000Y-101250000D03*
%TD*%
%TO.C,3.3V*%
X140000000Y-115500000D03*
%TD*%
D21*
%TO.C,U3*%
X189862500Y-84550000D03*
X189862500Y-85500000D03*
X189862500Y-86450000D03*
X192137500Y-86450000D03*
X192137500Y-84550000D03*
%TD*%
D16*
%TO.C,SCK*%
X151270000Y-108000000D03*
%TD*%
D15*
%TO.C,C4*%
X181362500Y-86325000D03*
X179637500Y-86325000D03*
%TD*%
D16*
%TO.C,RYaxis*%
X197500000Y-104500000D03*
%TD*%
%TO.C,LBtn*%
X100000000Y-101689617D03*
%TD*%
%TO.C,LXaxis*%
X116488481Y-120000000D03*
%TD*%
%TO.C,CE*%
X148730000Y-108000000D03*
%TD*%
D22*
%TO.C,J1*%
X145680000Y-81700000D03*
X145680000Y-85500000D03*
X154320000Y-81700000D03*
X154320000Y-85500000D03*
%TD*%
D23*
%TO.C,j5*%
X192211519Y-102000000D03*
X186111519Y-113230000D03*
X192341519Y-107000000D03*
X181111519Y-113230000D03*
X183611519Y-113230000D03*
X192341519Y-104500000D03*
X173361519Y-101250000D03*
X173361519Y-107750000D03*
X177861519Y-101250000D03*
X177861519Y-107750000D03*
D24*
X178611519Y-110825000D03*
X188611519Y-110825000D03*
X188611519Y-98175000D03*
X178611519Y-98175000D03*
%TD*%
D23*
%TO.C,j4*%
X125088481Y-102439617D03*
X118988481Y-113669617D03*
X125218481Y-107439617D03*
X113988481Y-113669617D03*
X116488481Y-113669617D03*
X125218481Y-104939617D03*
X106238481Y-101689617D03*
X106238481Y-108189617D03*
X110738481Y-101689617D03*
X110738481Y-108189617D03*
D24*
X111488481Y-111264617D03*
X121488481Y-111264617D03*
X121488481Y-98614617D03*
X111488481Y-98614617D03*
%TD*%
M02*
