M48
; DRILL file KiCad 10.0.1 date 2026-05-03T22:47:31
; FORMAT={-:-/ absolute / metric / decimal}
; #@! TF.CreationDate,2026-05-03T22:47:31-04:00
; #@! TF.GenerationSoftware,Kicad,Pcbnew,10.0.1
; #@! TF.FileFunction,Plated,1,2,PTH
FMAT,2
METRIC
; #@! TA.AperFunction,Plated,PTH,ViaDrill
T1C0.300
; #@! TA.AperFunction,Plated,PTH,ComponentDrill
T2C0.600
; #@! TA.AperFunction,Plated,PTH,ComponentDrill
T3C0.889
; #@! TA.AperFunction,Plated,PTH,ComponentDrill
T4C0.900
; #@! TA.AperFunction,Plated,PTH,ComponentDrill
T5C1.000
; #@! TA.AperFunction,Plated,PTH,ComponentDrill
T6C1.397
; #@! TA.AperFunction,Plated,PTH,ComponentDrill
T7C2.200
%
G90
G05
T1
X130.3Y-88.749
X140.0Y-106.0
X141.5Y-117.637
X146.0Y-110.0
X146.0Y-119.3
X146.637Y-116.0
X148.73Y-111.0
X149.0Y-83.5
X150.0Y-114.5
X150.0Y-122.5
X151.0Y-83.5
X151.6Y-116.0
X152.0Y-118.5
X153.0Y-125.5
X154.0Y-118.5
X156.5Y-96.0
X158.0Y-90.95
X158.0Y-120.1
X158.0Y-120.9
X158.5Y-82.5
X158.5Y-85.0
X159.0Y-112.5
X160.5Y-112.5
X162.0Y-119.137
X163.0Y-86.5
X168.0Y-89.4
X174.0Y-89.4
X176.5Y-84.375
X176.5Y-86.275
X177.412Y-91.0
X177.5Y-86.325
X177.862Y-83.5
X178.0Y-84.55
X179.637Y-83.0
X187.5Y-85.5
X192.0Y-82.0
T3
X113.988Y-113.67
X116.488Y-113.67
X118.988Y-113.67
X125.088Y-102.44
X125.218Y-104.94
X125.218Y-107.44
X181.112Y-113.23
X183.612Y-113.23
X186.112Y-113.23
X192.212Y-102.0
X192.342Y-104.5
X192.342Y-107.0
T4
X106.238Y-101.69
X106.238Y-108.19
X110.738Y-101.69
X110.738Y-108.19
X173.362Y-101.25
X173.362Y-107.75
X177.862Y-101.25
X177.862Y-107.75
T5
X134.46Y-98.5
X134.46Y-101.04
X134.46Y-103.58
X134.46Y-106.12
X134.46Y-108.66
X137.0Y-98.5
X137.0Y-101.04
X137.0Y-103.58
X137.0Y-106.12
X137.0Y-108.66
X146.19Y-100.235
X146.19Y-102.775
X148.73Y-100.235
X148.73Y-102.775
X151.27Y-100.235
X151.27Y-102.775
X153.81Y-100.235
X153.81Y-102.775
T6
X111.488Y-98.615
X111.488Y-111.265
X121.488Y-98.615
X121.488Y-111.265
X178.612Y-98.175
X178.612Y-110.825
X188.612Y-98.175
X188.612Y-110.825
T7
X97.15Y-87.15
X97.15Y-120.85
X202.85Y-87.15
X202.85Y-120.85
T2
X145.68Y-81.4G85X145.68Y-82.0
G05
X145.68Y-85.2G85X145.68Y-85.8
G05
X154.32Y-81.4G85X154.32Y-82.0
G05
X154.32Y-85.2G85X154.32Y-85.8
G05
M30
